<mxfile host="app.diagrams.net" modified="2024-03-04T17:11:54.630Z" agent="Mozilla/5.0 (Windows NT 10.0; Win64; x64) AppleWebKit/537.36 (KHTML, like Gecko) Chrome/122.0.0.0 Safari/537.36" etag="AkhT_nSW5QVHnoakcet4" version="23.1.8" type="device">
  <diagram name="ページ1" id="KzGolpFJWo6B_bF73U0r">
    <mxGraphModel dx="3781" dy="1132" grid="1" gridSize="10" guides="1" tooltips="1" connect="1" arrows="1" fold="1" page="1" pageScale="1" pageWidth="827" pageHeight="1169" math="0" shadow="0">
      <root>
        <mxCell id="0" />
        <mxCell id="1" parent="0" />
        <mxCell id="_JmauRq5uz_-VhJxKEEN-71" value="" style="rounded=1;whiteSpace=wrap;html=1;fillStyle=auto;glass=0;fillColor=#FFCCFF;strokeColor=#990099;opacity=20;strokeWidth=2;" parent="1" vertex="1">
          <mxGeometry x="1039.75" y="240" width="520.25" height="120" as="geometry" />
        </mxCell>
        <mxCell id="_JmauRq5uz_-VhJxKEEN-75" value="" style="rounded=1;whiteSpace=wrap;html=1;fillStyle=auto;glass=0;fillColor=#99FFCC;strokeColor=#006633;opacity=20;strokeWidth=2;" parent="1" vertex="1">
          <mxGeometry x="560" y="560" width="440" height="280" as="geometry" />
        </mxCell>
        <mxCell id="_JmauRq5uz_-VhJxKEEN-56" value="" style="rounded=1;whiteSpace=wrap;html=1;fillStyle=auto;glass=0;fillColor=#FFCCFF;strokeColor=#990099;opacity=20;strokeWidth=2;" parent="1" vertex="1">
          <mxGeometry x="1040" y="400" width="520.25" height="440" as="geometry" />
        </mxCell>
        <mxCell id="_JmauRq5uz_-VhJxKEEN-69" value="" style="rounded=1;whiteSpace=wrap;html=1;fillStyle=auto;glass=0;fillColor=#CC99FF;strokeColor=#004C99;opacity=20;strokeWidth=2;" parent="1" vertex="1">
          <mxGeometry x="760" y="240" width="240" height="280" as="geometry" />
        </mxCell>
        <mxCell id="_JmauRq5uz_-VhJxKEEN-54" value="" style="rounded=1;whiteSpace=wrap;html=1;fillStyle=auto;glass=0;fillColor=#dae8fc;strokeColor=#004C99;opacity=20;strokeWidth=2;" parent="1" vertex="1">
          <mxGeometry x="-80" y="240" width="800" height="280" as="geometry" />
        </mxCell>
        <mxCell id="_JmauRq5uz_-VhJxKEEN-55" value="" style="rounded=1;whiteSpace=wrap;html=1;fillStyle=auto;glass=0;fillColor=#FF9999;strokeColor=#990000;opacity=20;strokeWidth=2;" parent="1" vertex="1">
          <mxGeometry x="1600" y="240" width="240" height="600" as="geometry" />
        </mxCell>
        <mxCell id="_JmauRq5uz_-VhJxKEEN-1" value="&lt;font color=&quot;#ffffff&quot; style=&quot;font-size: 25px;&quot;&gt;Router&lt;/font&gt;" style="rounded=1;whiteSpace=wrap;html=1;fillColor=#99CCFF;strokeColor=none;" parent="1" vertex="1">
          <mxGeometry x="-40" y="360" width="160" height="40" as="geometry" />
        </mxCell>
        <mxCell id="_JmauRq5uz_-VhJxKEEN-3" value="&lt;font color=&quot;#ffffff&quot;&gt;&lt;span style=&quot;font-size: 25px;&quot;&gt;Interceptor&lt;/span&gt;&lt;/font&gt;" style="rounded=1;whiteSpace=wrap;html=1;fillColor=#99CCFF;strokeColor=none;" parent="1" vertex="1">
          <mxGeometry x="240" y="280" width="160" height="40" as="geometry" />
        </mxCell>
        <mxCell id="_JmauRq5uz_-VhJxKEEN-4" value="&lt;font color=&quot;#ffffff&quot; style=&quot;font-size: 25px;&quot;&gt;Handler&lt;/font&gt;" style="rounded=1;whiteSpace=wrap;html=1;fillColor=#99CCFF;strokeColor=none;" parent="1" vertex="1">
          <mxGeometry x="520" y="360" width="160" height="40" as="geometry" />
        </mxCell>
        <mxCell id="_JmauRq5uz_-VhJxKEEN-5" value="&lt;font color=&quot;#ffffff&quot; style=&quot;font-size: 25px;&quot;&gt;Server&lt;/font&gt;" style="rounded=1;whiteSpace=wrap;html=1;fillColor=#99CCFF;strokeColor=none;" parent="1" vertex="1">
          <mxGeometry x="240" y="440" width="160" height="40" as="geometry" />
        </mxCell>
        <mxCell id="_JmauRq5uz_-VhJxKEEN-6" value="&lt;font color=&quot;#ffffff&quot; style=&quot;font-size: 25px;&quot;&gt;Usecase&lt;/font&gt;" style="rounded=1;whiteSpace=wrap;html=1;fillColor=#9999FF;strokeColor=none;" parent="1" vertex="1">
          <mxGeometry x="800" y="360" width="160" height="40" as="geometry" />
        </mxCell>
        <mxCell id="_JmauRq5uz_-VhJxKEEN-7" value="&lt;font color=&quot;#ffffff&quot; style=&quot;font-size: 25px;&quot;&gt;Service&lt;/font&gt;" style="rounded=1;whiteSpace=wrap;html=1;fillColor=#FF99FF;strokeColor=none;" parent="1" vertex="1">
          <mxGeometry x="1080.5" y="520" width="160" height="40" as="geometry" />
        </mxCell>
        <mxCell id="_JmauRq5uz_-VhJxKEEN-8" value="&lt;font color=&quot;#ffffff&quot; style=&quot;font-size: 25px;&quot;&gt;Repository&lt;/font&gt;" style="rounded=1;whiteSpace=wrap;html=1;fillColor=#FF99FF;strokeColor=none;" parent="1" vertex="1">
          <mxGeometry x="1360" y="520" width="160" height="40" as="geometry" />
        </mxCell>
        <mxCell id="_JmauRq5uz_-VhJxKEEN-9" value="&lt;font color=&quot;#ffffff&quot;&gt;&lt;span style=&quot;font-size: 25px;&quot;&gt;Model&lt;/span&gt;&lt;/font&gt;" style="rounded=1;whiteSpace=wrap;html=1;fillColor=#FF99FF;strokeColor=none;" parent="1" vertex="1">
          <mxGeometry x="1360" y="440" width="160" height="40" as="geometry" />
        </mxCell>
        <mxCell id="_JmauRq5uz_-VhJxKEEN-10" value="&lt;font color=&quot;#ffffff&quot; style=&quot;font-size: 25px;&quot;&gt;Dao&lt;/font&gt;" style="rounded=1;whiteSpace=wrap;html=1;fillColor=#FF9999;strokeColor=none;" parent="1" vertex="1">
          <mxGeometry x="1640" y="520" width="160" height="40" as="geometry" />
        </mxCell>
        <mxCell id="_JmauRq5uz_-VhJxKEEN-11" value="&lt;font color=&quot;#ffffff&quot; style=&quot;font-size: 25px;&quot;&gt;Table&lt;/font&gt;" style="rounded=1;whiteSpace=wrap;html=1;fillColor=#FF9999;strokeColor=none;" parent="1" vertex="1">
          <mxGeometry x="1640" y="440" width="160" height="40" as="geometry" />
        </mxCell>
        <mxCell id="_JmauRq5uz_-VhJxKEEN-16" value="" style="endArrow=none;startArrow=classic;html=1;rounded=0;edgeStyle=orthogonalEdgeStyle;curved=1;entryX=0;entryY=0.5;entryDx=0;entryDy=0;exitX=1;exitY=0.5;exitDx=0;exitDy=0;endFill=0;strokeColor=#808080;" parent="1" source="_JmauRq5uz_-VhJxKEEN-8" target="_JmauRq5uz_-VhJxKEEN-10" edge="1">
          <mxGeometry width="50" height="50" relative="1" as="geometry">
            <mxPoint x="1390" y="520" as="sourcePoint" />
            <mxPoint x="1440" y="470" as="targetPoint" />
          </mxGeometry>
        </mxCell>
        <mxCell id="_JmauRq5uz_-VhJxKEEN-17" value="" style="endArrow=none;startArrow=classic;html=1;rounded=0;edgeStyle=orthogonalEdgeStyle;curved=1;entryX=0;entryY=0.5;entryDx=0;entryDy=0;exitX=1;exitY=0.5;exitDx=0;exitDy=0;endFill=0;strokeColor=#808080;" parent="1" source="_JmauRq5uz_-VhJxKEEN-9" target="_JmauRq5uz_-VhJxKEEN-10" edge="1">
          <mxGeometry width="50" height="50" relative="1" as="geometry">
            <mxPoint x="1490" y="470" as="sourcePoint" />
            <mxPoint x="1570" y="470" as="targetPoint" />
          </mxGeometry>
        </mxCell>
        <mxCell id="_JmauRq5uz_-VhJxKEEN-19" value="" style="endArrow=none;startArrow=classic;html=1;rounded=0;edgeStyle=orthogonalEdgeStyle;curved=1;exitX=0.5;exitY=1;exitDx=0;exitDy=0;endFill=0;strokeColor=#808080;" parent="1" source="_JmauRq5uz_-VhJxKEEN-11" target="_JmauRq5uz_-VhJxKEEN-10" edge="1">
          <mxGeometry width="50" height="50" relative="1" as="geometry">
            <mxPoint x="1500" y="480" as="sourcePoint" />
            <mxPoint x="1580" y="480" as="targetPoint" />
          </mxGeometry>
        </mxCell>
        <mxCell id="_JmauRq5uz_-VhJxKEEN-20" value="" style="endArrow=none;startArrow=classic;html=1;rounded=0;edgeStyle=orthogonalEdgeStyle;curved=1;entryX=1;entryY=0.5;entryDx=0;entryDy=0;exitX=0;exitY=0.5;exitDx=0;exitDy=0;endFill=0;strokeColor=#808080;" parent="1" source="_JmauRq5uz_-VhJxKEEN-8" target="_JmauRq5uz_-VhJxKEEN-7" edge="1">
          <mxGeometry width="50" height="50" relative="1" as="geometry">
            <mxPoint x="1530" y="470" as="sourcePoint" />
            <mxPoint x="1650" y="470" as="targetPoint" />
          </mxGeometry>
        </mxCell>
        <mxCell id="_JmauRq5uz_-VhJxKEEN-21" value="" style="endArrow=none;startArrow=classic;html=1;rounded=0;edgeStyle=orthogonalEdgeStyle;curved=1;exitX=0;exitY=0.5;exitDx=0;exitDy=0;endFill=0;strokeColor=#808080;" parent="1" source="_JmauRq5uz_-VhJxKEEN-9" target="_JmauRq5uz_-VhJxKEEN-7" edge="1">
          <mxGeometry width="50" height="50" relative="1" as="geometry">
            <mxPoint x="1540" y="480" as="sourcePoint" />
            <mxPoint x="1660" y="480" as="targetPoint" />
          </mxGeometry>
        </mxCell>
        <mxCell id="_JmauRq5uz_-VhJxKEEN-24" value="&lt;font color=&quot;#ffffff&quot; style=&quot;font-size: 25px;&quot;&gt;Service&lt;/font&gt;" style="rounded=1;whiteSpace=wrap;html=1;fillColor=#FF99FF;strokeColor=none;" parent="1" vertex="1">
          <mxGeometry x="1080.25" y="680" width="160" height="40" as="geometry" />
        </mxCell>
        <mxCell id="_JmauRq5uz_-VhJxKEEN-25" value="&lt;font color=&quot;#ffffff&quot; style=&quot;font-size: 25px;&quot;&gt;Repository&lt;/font&gt;" style="rounded=1;whiteSpace=wrap;html=1;fillColor=#FF99FF;strokeColor=none;" parent="1" vertex="1">
          <mxGeometry x="1359.75" y="680" width="160" height="40" as="geometry" />
        </mxCell>
        <mxCell id="_JmauRq5uz_-VhJxKEEN-26" value="&lt;font color=&quot;#ffffff&quot;&gt;&lt;span style=&quot;font-size: 25px;&quot;&gt;Model&lt;/span&gt;&lt;/font&gt;" style="rounded=1;whiteSpace=wrap;html=1;fillColor=#FF99FF;strokeColor=none;" parent="1" vertex="1">
          <mxGeometry x="1359.75" y="760" width="160" height="40" as="geometry" />
        </mxCell>
        <mxCell id="_JmauRq5uz_-VhJxKEEN-27" value="&lt;font color=&quot;#ffffff&quot; style=&quot;font-size: 25px;&quot;&gt;Dao&lt;/font&gt;" style="rounded=1;whiteSpace=wrap;html=1;fillColor=#FF9999;strokeColor=none;" parent="1" vertex="1">
          <mxGeometry x="1639.75" y="680" width="160" height="40" as="geometry" />
        </mxCell>
        <mxCell id="_JmauRq5uz_-VhJxKEEN-28" value="&lt;font color=&quot;#ffffff&quot; style=&quot;font-size: 25px;&quot;&gt;Table&lt;/font&gt;" style="rounded=1;whiteSpace=wrap;html=1;fillColor=#FF9999;strokeColor=none;" parent="1" vertex="1">
          <mxGeometry x="1639.75" y="760" width="160" height="40" as="geometry" />
        </mxCell>
        <mxCell id="_JmauRq5uz_-VhJxKEEN-29" value="" style="endArrow=none;startArrow=classic;html=1;rounded=0;edgeStyle=orthogonalEdgeStyle;curved=1;entryX=1;entryY=0.5;entryDx=0;entryDy=0;exitX=0;exitY=0.5;exitDx=0;exitDy=0;endFill=0;strokeColor=#808080;" parent="1" source="_JmauRq5uz_-VhJxKEEN-25" target="_JmauRq5uz_-VhJxKEEN-24" edge="1">
          <mxGeometry width="50" height="50" relative="1" as="geometry">
            <mxPoint x="1370" y="550" as="sourcePoint" />
            <mxPoint x="1251" y="550" as="targetPoint" />
          </mxGeometry>
        </mxCell>
        <mxCell id="_JmauRq5uz_-VhJxKEEN-30" value="" style="endArrow=none;startArrow=classic;html=1;rounded=0;edgeStyle=orthogonalEdgeStyle;curved=1;entryX=0.5;entryY=1;entryDx=0;entryDy=0;endFill=0;strokeColor=#808080;" parent="1" source="_JmauRq5uz_-VhJxKEEN-26" target="_JmauRq5uz_-VhJxKEEN-24" edge="1">
          <mxGeometry width="50" height="50" relative="1" as="geometry">
            <mxPoint x="1380" y="560" as="sourcePoint" />
            <mxPoint x="1261" y="560" as="targetPoint" />
          </mxGeometry>
        </mxCell>
        <mxCell id="_JmauRq5uz_-VhJxKEEN-31" value="" style="endArrow=none;startArrow=classic;html=1;rounded=0;edgeStyle=orthogonalEdgeStyle;curved=1;entryX=0;entryY=0.5;entryDx=0;entryDy=0;endFill=0;strokeColor=#808080;" parent="1" source="_JmauRq5uz_-VhJxKEEN-25" target="_JmauRq5uz_-VhJxKEEN-27" edge="1">
          <mxGeometry width="50" height="50" relative="1" as="geometry">
            <mxPoint x="1390" y="570" as="sourcePoint" />
            <mxPoint x="1271" y="570" as="targetPoint" />
          </mxGeometry>
        </mxCell>
        <mxCell id="_JmauRq5uz_-VhJxKEEN-32" value="" style="endArrow=none;startArrow=classic;html=1;rounded=0;edgeStyle=orthogonalEdgeStyle;curved=1;entryX=0;entryY=0.5;entryDx=0;entryDy=0;exitX=1;exitY=0.5;exitDx=0;exitDy=0;endFill=0;strokeColor=#808080;" parent="1" source="_JmauRq5uz_-VhJxKEEN-26" target="_JmauRq5uz_-VhJxKEEN-27" edge="1">
          <mxGeometry width="50" height="50" relative="1" as="geometry">
            <mxPoint x="1400" y="580" as="sourcePoint" />
            <mxPoint x="1281" y="580" as="targetPoint" />
          </mxGeometry>
        </mxCell>
        <mxCell id="_JmauRq5uz_-VhJxKEEN-33" value="" style="endArrow=none;startArrow=classic;html=1;rounded=0;edgeStyle=orthogonalEdgeStyle;curved=1;entryX=0.5;entryY=1;entryDx=0;entryDy=0;exitX=0.5;exitY=0;exitDx=0;exitDy=0;endFill=0;strokeColor=#808080;" parent="1" source="_JmauRq5uz_-VhJxKEEN-28" target="_JmauRq5uz_-VhJxKEEN-27" edge="1">
          <mxGeometry width="50" height="50" relative="1" as="geometry">
            <mxPoint x="1410" y="590" as="sourcePoint" />
            <mxPoint x="1291" y="590" as="targetPoint" />
          </mxGeometry>
        </mxCell>
        <mxCell id="_JmauRq5uz_-VhJxKEEN-34" value="" style="endArrow=none;startArrow=classic;html=1;rounded=0;edgeStyle=orthogonalEdgeStyle;curved=1;entryX=0.5;entryY=0;entryDx=0;entryDy=0;exitX=0.5;exitY=1;exitDx=0;exitDy=0;endFill=0;strokeColor=#808080;startFill=1;" parent="1" source="_JmauRq5uz_-VhJxKEEN-7" target="_JmauRq5uz_-VhJxKEEN-24" edge="1">
          <mxGeometry width="50" height="50" relative="1" as="geometry">
            <mxPoint x="1370" y="710" as="sourcePoint" />
            <mxPoint x="1250" y="710" as="targetPoint" />
          </mxGeometry>
        </mxCell>
        <mxCell id="_JmauRq5uz_-VhJxKEEN-40" value="" style="endArrow=none;startArrow=classic;html=1;rounded=0;edgeStyle=orthogonalEdgeStyle;curved=1;entryX=1;entryY=0.5;entryDx=0;entryDy=0;exitX=0;exitY=0.5;exitDx=0;exitDy=0;endFill=0;strokeColor=#808080;" parent="1" source="_JmauRq5uz_-VhJxKEEN-24" target="_JmauRq5uz_-VhJxKEEN-6" edge="1">
          <mxGeometry width="50" height="50" relative="1" as="geometry">
            <mxPoint x="1370" y="550" as="sourcePoint" />
            <mxPoint x="1251" y="550" as="targetPoint" />
          </mxGeometry>
        </mxCell>
        <mxCell id="_JmauRq5uz_-VhJxKEEN-42" value="" style="endArrow=none;startArrow=classic;html=1;rounded=0;edgeStyle=orthogonalEdgeStyle;curved=1;entryX=1;entryY=0.5;entryDx=0;entryDy=0;exitX=0;exitY=0.5;exitDx=0;exitDy=0;endFill=0;strokeColor=#808080;" parent="1" source="_JmauRq5uz_-VhJxKEEN-4" target="_JmauRq5uz_-VhJxKEEN-1" edge="1">
          <mxGeometry width="50" height="50" relative="1" as="geometry">
            <mxPoint x="1090" y="710" as="sourcePoint" />
            <mxPoint x="970" y="630" as="targetPoint" />
          </mxGeometry>
        </mxCell>
        <mxCell id="_JmauRq5uz_-VhJxKEEN-43" value="" style="endArrow=none;startArrow=classic;html=1;rounded=0;edgeStyle=orthogonalEdgeStyle;curved=1;entryX=1;entryY=0.5;entryDx=0;entryDy=0;endFill=0;strokeColor=#808080;" parent="1" source="_JmauRq5uz_-VhJxKEEN-3" target="_JmauRq5uz_-VhJxKEEN-1" edge="1">
          <mxGeometry width="50" height="50" relative="1" as="geometry">
            <mxPoint x="530" y="630" as="sourcePoint" />
            <mxPoint x="130" y="630" as="targetPoint" />
          </mxGeometry>
        </mxCell>
        <mxCell id="_JmauRq5uz_-VhJxKEEN-44" value="" style="endArrow=none;startArrow=classic;html=1;rounded=0;edgeStyle=orthogonalEdgeStyle;curved=1;entryX=1;entryY=0.5;entryDx=0;entryDy=0;exitX=0;exitY=0.5;exitDx=0;exitDy=0;endFill=0;strokeColor=#808080;" parent="1" source="_JmauRq5uz_-VhJxKEEN-4" target="_JmauRq5uz_-VhJxKEEN-3" edge="1">
          <mxGeometry width="50" height="50" relative="1" as="geometry">
            <mxPoint x="540" y="640" as="sourcePoint" />
            <mxPoint x="140" y="640" as="targetPoint" />
          </mxGeometry>
        </mxCell>
        <mxCell id="_JmauRq5uz_-VhJxKEEN-45" value="" style="endArrow=none;startArrow=classic;html=1;rounded=0;edgeStyle=orthogonalEdgeStyle;curved=1;entryX=0.5;entryY=1;entryDx=0;entryDy=0;exitX=1;exitY=0.5;exitDx=0;exitDy=0;endFill=0;strokeColor=#808080;" parent="1" source="_JmauRq5uz_-VhJxKEEN-5" target="_JmauRq5uz_-VhJxKEEN-4" edge="1">
          <mxGeometry width="50" height="50" relative="1" as="geometry">
            <mxPoint x="550" y="650" as="sourcePoint" />
            <mxPoint x="150" y="650" as="targetPoint" />
          </mxGeometry>
        </mxCell>
        <mxCell id="_JmauRq5uz_-VhJxKEEN-46" value="" style="endArrow=none;startArrow=classic;html=1;rounded=0;edgeStyle=orthogonalEdgeStyle;curved=1;exitX=0;exitY=0.5;exitDx=0;exitDy=0;endFill=0;strokeColor=#808080;entryX=1;entryY=0.5;entryDx=0;entryDy=0;" parent="1" source="_JmauRq5uz_-VhJxKEEN-6" target="_JmauRq5uz_-VhJxKEEN-4" edge="1">
          <mxGeometry width="50" height="50" relative="1" as="geometry">
            <mxPoint x="560" y="660" as="sourcePoint" />
            <mxPoint x="680" y="620" as="targetPoint" />
          </mxGeometry>
        </mxCell>
        <mxCell id="_JmauRq5uz_-VhJxKEEN-48" value="" style="endArrow=none;startArrow=classic;html=1;rounded=0;edgeStyle=orthogonalEdgeStyle;curved=1;entryX=0.5;entryY=1;entryDx=0;entryDy=0;exitX=0;exitY=0.5;exitDx=0;exitDy=0;endFill=0;strokeColor=#808080;" parent="1" source="_JmauRq5uz_-VhJxKEEN-5" target="_JmauRq5uz_-VhJxKEEN-1" edge="1">
          <mxGeometry width="50" height="50" relative="1" as="geometry">
            <mxPoint x="530" y="630" as="sourcePoint" />
            <mxPoint x="130" y="630" as="targetPoint" />
          </mxGeometry>
        </mxCell>
        <mxCell id="_JmauRq5uz_-VhJxKEEN-49" value="&lt;font color=&quot;#ffffff&quot; style=&quot;font-size: 25px;&quot;&gt;Database&lt;/font&gt;" style="rounded=1;whiteSpace=wrap;html=1;fillColor=#FFB366;strokeColor=none;" parent="1" vertex="1">
          <mxGeometry x="1920" y="520" width="160" height="40" as="geometry" />
        </mxCell>
        <mxCell id="_JmauRq5uz_-VhJxKEEN-50" value="&lt;font color=&quot;#ffffff&quot; style=&quot;font-size: 25px;&quot;&gt;Client&lt;/font&gt;" style="rounded=1;whiteSpace=wrap;html=1;fillColor=#FFB366;strokeColor=none;" parent="1" vertex="1">
          <mxGeometry x="-320" y="360" width="160" height="40" as="geometry" />
        </mxCell>
        <mxCell id="_JmauRq5uz_-VhJxKEEN-51" value="" style="endArrow=none;startArrow=classic;html=1;rounded=0;edgeStyle=orthogonalEdgeStyle;curved=1;entryX=1;entryY=0.5;entryDx=0;entryDy=0;exitX=0;exitY=0.5;exitDx=0;exitDy=0;endFill=0;strokeColor=#808080;" parent="1" source="_JmauRq5uz_-VhJxKEEN-49" target="_JmauRq5uz_-VhJxKEEN-10" edge="1">
          <mxGeometry width="50" height="50" relative="1" as="geometry">
            <mxPoint x="1370" y="550" as="sourcePoint" />
            <mxPoint x="1251" y="550" as="targetPoint" />
          </mxGeometry>
        </mxCell>
        <mxCell id="_JmauRq5uz_-VhJxKEEN-52" value="" style="endArrow=none;startArrow=classic;html=1;rounded=0;edgeStyle=orthogonalEdgeStyle;curved=1;entryX=1;entryY=0.5;entryDx=0;entryDy=0;exitX=0;exitY=0.5;exitDx=0;exitDy=0;endFill=0;strokeColor=#808080;" parent="1" source="_JmauRq5uz_-VhJxKEEN-49" target="_JmauRq5uz_-VhJxKEEN-27" edge="1">
          <mxGeometry width="50" height="50" relative="1" as="geometry">
            <mxPoint x="1930" y="630" as="sourcePoint" />
            <mxPoint x="1810" y="550" as="targetPoint" />
          </mxGeometry>
        </mxCell>
        <mxCell id="_JmauRq5uz_-VhJxKEEN-57" value="&lt;span style=&quot;font-size: 20px;&quot;&gt;Presentation&lt;/span&gt;" style="text;strokeColor=none;fillColor=none;align=left;verticalAlign=middle;spacingLeft=4;spacingRight=4;overflow=hidden;points=[[0,0.5],[1,0.5]];portConstraint=eastwest;rotatable=0;whiteSpace=wrap;html=1;fontColor=#3399FF;" parent="1" vertex="1">
          <mxGeometry x="-40" y="240" width="170" height="30" as="geometry" />
        </mxCell>
        <mxCell id="_JmauRq5uz_-VhJxKEEN-58" value="&lt;font style=&quot;font-size: 20px;&quot;&gt;Domain&lt;/font&gt;" style="text;strokeColor=none;fillColor=none;align=left;verticalAlign=middle;spacingLeft=4;spacingRight=4;overflow=hidden;points=[[0,0.5],[1,0.5]];portConstraint=eastwest;rotatable=0;whiteSpace=wrap;html=1;fontColor=#FF33FF;" parent="1" vertex="1">
          <mxGeometry x="1080.5" y="400" width="170" height="30" as="geometry" />
        </mxCell>
        <mxCell id="_JmauRq5uz_-VhJxKEEN-62" value="" style="endArrow=none;startArrow=classic;html=1;rounded=0;edgeStyle=orthogonalEdgeStyle;curved=1;entryX=1;entryY=0.5;entryDx=0;entryDy=0;exitX=0;exitY=0.5;exitDx=0;exitDy=0;endFill=0;strokeColor=#808080;" parent="1" source="_JmauRq5uz_-VhJxKEEN-1" target="_JmauRq5uz_-VhJxKEEN-50" edge="1">
          <mxGeometry width="50" height="50" relative="1" as="geometry">
            <mxPoint x="530" y="630" as="sourcePoint" />
            <mxPoint x="130" y="630" as="targetPoint" />
          </mxGeometry>
        </mxCell>
        <mxCell id="_JmauRq5uz_-VhJxKEEN-63" value="&lt;font color=&quot;#ffffff&quot; style=&quot;font-size: 25px;&quot;&gt;Service&lt;/font&gt;" style="rounded=1;whiteSpace=wrap;html=1;fillColor=#FF99FF;strokeColor=none;" parent="1" vertex="1">
          <mxGeometry x="1080" y="280" width="160" height="40" as="geometry" />
        </mxCell>
        <mxCell id="_JmauRq5uz_-VhJxKEEN-64" value="&lt;font color=&quot;#ffffff&quot; style=&quot;font-size: 25px;&quot;&gt;Repository&lt;/font&gt;" style="rounded=1;whiteSpace=wrap;html=1;fillColor=#FF99FF;strokeColor=none;" parent="1" vertex="1">
          <mxGeometry x="1359.75" y="280" width="160" height="40" as="geometry" />
        </mxCell>
        <mxCell id="_JmauRq5uz_-VhJxKEEN-65" value="&lt;font color=&quot;#ffffff&quot; style=&quot;font-size: 25px;&quot;&gt;Dao&lt;/font&gt;" style="rounded=1;whiteSpace=wrap;html=1;fillColor=#FF9999;strokeColor=none;" parent="1" vertex="1">
          <mxGeometry x="1639.5" y="280" width="160" height="40" as="geometry" />
        </mxCell>
        <mxCell id="_JmauRq5uz_-VhJxKEEN-66" value="" style="endArrow=none;startArrow=classic;html=1;rounded=0;edgeStyle=orthogonalEdgeStyle;curved=1;entryX=1;entryY=0.5;entryDx=0;entryDy=0;exitX=0;exitY=0.5;exitDx=0;exitDy=0;endFill=0;strokeColor=#808080;" parent="1" source="_JmauRq5uz_-VhJxKEEN-63" target="_JmauRq5uz_-VhJxKEEN-6" edge="1">
          <mxGeometry width="50" height="50" relative="1" as="geometry">
            <mxPoint x="1091" y="550" as="sourcePoint" />
            <mxPoint x="970" y="630" as="targetPoint" />
          </mxGeometry>
        </mxCell>
        <mxCell id="_JmauRq5uz_-VhJxKEEN-67" value="" style="endArrow=none;startArrow=classic;html=1;rounded=0;edgeStyle=orthogonalEdgeStyle;curved=1;entryX=1;entryY=0.5;entryDx=0;entryDy=0;exitX=0;exitY=0.5;exitDx=0;exitDy=0;endFill=0;strokeColor=#808080;" parent="1" source="_JmauRq5uz_-VhJxKEEN-64" target="_JmauRq5uz_-VhJxKEEN-63" edge="1">
          <mxGeometry width="50" height="50" relative="1" as="geometry">
            <mxPoint x="1370" y="710" as="sourcePoint" />
            <mxPoint x="1250" y="710" as="targetPoint" />
          </mxGeometry>
        </mxCell>
        <mxCell id="_JmauRq5uz_-VhJxKEEN-68" value="" style="endArrow=none;startArrow=classic;html=1;rounded=0;edgeStyle=orthogonalEdgeStyle;curved=1;entryX=0;entryY=0.5;entryDx=0;entryDy=0;exitX=1;exitY=0.5;exitDx=0;exitDy=0;endFill=0;strokeColor=#808080;" parent="1" source="_JmauRq5uz_-VhJxKEEN-64" target="_JmauRq5uz_-VhJxKEEN-65" edge="1">
          <mxGeometry width="50" height="50" relative="1" as="geometry">
            <mxPoint x="1370" y="990" as="sourcePoint" />
            <mxPoint x="1251" y="990" as="targetPoint" />
          </mxGeometry>
        </mxCell>
        <mxCell id="_JmauRq5uz_-VhJxKEEN-70" value="&lt;span style=&quot;font-size: 20px;&quot;&gt;Usecase&lt;/span&gt;" style="text;strokeColor=none;fillColor=none;align=left;verticalAlign=middle;spacingLeft=4;spacingRight=4;overflow=hidden;points=[[0,0.5],[1,0.5]];portConstraint=eastwest;rotatable=0;whiteSpace=wrap;html=1;fontColor=#6600CC;" parent="1" vertex="1">
          <mxGeometry x="790" y="240" width="170" height="30" as="geometry" />
        </mxCell>
        <mxCell id="_JmauRq5uz_-VhJxKEEN-72" value="&lt;font style=&quot;font-size: 20px;&quot;&gt;Transaction&lt;/font&gt;" style="text;strokeColor=none;fillColor=none;align=left;verticalAlign=middle;spacingLeft=4;spacingRight=4;overflow=hidden;points=[[0,0.5],[1,0.5]];portConstraint=eastwest;rotatable=0;whiteSpace=wrap;html=1;fontColor=#FF33FF;" parent="1" vertex="1">
          <mxGeometry x="1080.25" y="240" width="170" height="30" as="geometry" />
        </mxCell>
        <mxCell id="_JmauRq5uz_-VhJxKEEN-74" value="&lt;span style=&quot;font-size: 20px;&quot;&gt;&lt;font color=&quot;#ff3333&quot;&gt;Infrastructure&lt;/font&gt;&lt;/span&gt;" style="text;strokeColor=none;fillColor=none;align=left;verticalAlign=middle;spacingLeft=4;spacingRight=4;overflow=hidden;points=[[0,0.5],[1,0.5]];portConstraint=eastwest;rotatable=0;whiteSpace=wrap;html=1;fontColor=#FF33FF;" parent="1" vertex="1">
          <mxGeometry x="1619.75" y="240" width="170" height="30" as="geometry" />
        </mxCell>
        <mxCell id="_JmauRq5uz_-VhJxKEEN-76" value="&lt;span style=&quot;font-size: 20px;&quot;&gt;Internal&lt;/span&gt;" style="text;strokeColor=none;fillColor=none;align=left;verticalAlign=middle;spacingLeft=4;spacingRight=4;overflow=hidden;points=[[0,0.5],[1,0.5]];portConstraint=eastwest;rotatable=0;whiteSpace=wrap;html=1;fontColor=#00994D;" parent="1" vertex="1">
          <mxGeometry x="600" y="560" width="170" height="30" as="geometry" />
        </mxCell>
        <mxCell id="_JmauRq5uz_-VhJxKEEN-77" value="&lt;font color=&quot;#ffffff&quot;&gt;&lt;span style=&quot;font-size: 25px;&quot;&gt;Changes&lt;/span&gt;&lt;/font&gt;" style="rounded=1;whiteSpace=wrap;html=1;fillColor=#99FF99;strokeColor=none;" parent="1" vertex="1">
          <mxGeometry x="800" y="600" width="160" height="40" as="geometry" />
        </mxCell>
        <mxCell id="_JmauRq5uz_-VhJxKEEN-78" value="&lt;font color=&quot;#ffffff&quot;&gt;&lt;span style=&quot;font-size: 25px;&quot;&gt;Errors&lt;/span&gt;&lt;/font&gt;" style="rounded=1;whiteSpace=wrap;html=1;fillColor=#99FF99;strokeColor=none;" parent="1" vertex="1">
          <mxGeometry x="600" y="680" width="160" height="40" as="geometry" />
        </mxCell>
        <mxCell id="_JmauRq5uz_-VhJxKEEN-79" value="&lt;font color=&quot;#ffffff&quot;&gt;&lt;span style=&quot;font-size: 25px;&quot;&gt;Keys&lt;/span&gt;&lt;/font&gt;" style="rounded=1;whiteSpace=wrap;html=1;fillColor=#99FF99;strokeColor=none;" parent="1" vertex="1">
          <mxGeometry x="600" y="760" width="160" height="40" as="geometry" />
        </mxCell>
        <mxCell id="_JmauRq5uz_-VhJxKEEN-80" value="&lt;font color=&quot;#ffffff&quot;&gt;&lt;span style=&quot;font-size: 25px;&quot;&gt;Tokens&lt;/span&gt;&lt;/font&gt;" style="rounded=1;whiteSpace=wrap;html=1;fillColor=#99FF99;strokeColor=none;" parent="1" vertex="1">
          <mxGeometry x="600" y="600" width="160" height="40" as="geometry" />
        </mxCell>
        <mxCell id="_JmauRq5uz_-VhJxKEEN-81" value="&lt;font color=&quot;#ffffff&quot;&gt;&lt;span style=&quot;font-size: 25px;&quot;&gt;Times&lt;/span&gt;&lt;/font&gt;" style="rounded=1;whiteSpace=wrap;html=1;fillColor=#99FF99;strokeColor=none;" parent="1" vertex="1">
          <mxGeometry x="800" y="680" width="160" height="40" as="geometry" />
        </mxCell>
        <mxCell id="_JmauRq5uz_-VhJxKEEN-82" value="&lt;font color=&quot;#ffffff&quot;&gt;&lt;span style=&quot;font-size: 25px;&quot;&gt;Cashes&lt;br&gt;&lt;/span&gt;&lt;/font&gt;" style="rounded=1;whiteSpace=wrap;html=1;fillColor=#99FF99;strokeColor=none;" parent="1" vertex="1">
          <mxGeometry x="800" y="760" width="160" height="40" as="geometry" />
        </mxCell>
        <mxCell id="_JmauRq5uz_-VhJxKEEN-84" value="" style="rounded=1;whiteSpace=wrap;html=1;fillStyle=auto;glass=0;fillColor=#99FFFF;strokeColor=#009999;opacity=20;strokeWidth=2;" parent="1" vertex="1">
          <mxGeometry x="280" y="560" width="240" height="280" as="geometry" />
        </mxCell>
        <mxCell id="_JmauRq5uz_-VhJxKEEN-85" value="&lt;span style=&quot;font-size: 20px;&quot;&gt;Configs&lt;/span&gt;" style="text;strokeColor=none;fillColor=none;align=left;verticalAlign=middle;spacingLeft=4;spacingRight=4;overflow=hidden;points=[[0,0.5],[1,0.5]];portConstraint=eastwest;rotatable=0;whiteSpace=wrap;html=1;fontColor=#00CCCC;" parent="1" vertex="1">
          <mxGeometry x="310" y="560" width="170" height="30" as="geometry" />
        </mxCell>
        <mxCell id="_JmauRq5uz_-VhJxKEEN-86" value="&lt;font color=&quot;#ffffff&quot; style=&quot;font-size: 25px;&quot;&gt;API config&lt;/font&gt;" style="rounded=1;whiteSpace=wrap;html=1;fillColor=#78FFFA;strokeColor=none;" parent="1" vertex="1">
          <mxGeometry x="320" y="600" width="160" height="40" as="geometry" />
        </mxCell>
        <mxCell id="_JmauRq5uz_-VhJxKEEN-87" value="&lt;font color=&quot;#ffffff&quot; style=&quot;font-size: 25px;&quot;&gt;Batch config&lt;/font&gt;" style="rounded=1;whiteSpace=wrap;html=1;fillColor=#78FFFA;strokeColor=none;" parent="1" vertex="1">
          <mxGeometry x="320" y="680" width="160" height="40" as="geometry" />
        </mxCell>
        <mxCell id="_JmauRq5uz_-VhJxKEEN-88" value="&lt;font color=&quot;#ffffff&quot; style=&quot;font-size: 25px;&quot;&gt;DB config&lt;/font&gt;" style="rounded=1;whiteSpace=wrap;html=1;fillColor=#78FFFA;strokeColor=none;" parent="1" vertex="1">
          <mxGeometry x="320" y="760" width="160" height="40" as="geometry" />
        </mxCell>
        <mxCell id="IrbgwnN4QTPTyrobU2GC-1" value="" style="endArrow=none;startArrow=classic;html=1;rounded=0;edgeStyle=orthogonalEdgeStyle;curved=1;entryX=1;entryY=0.5;entryDx=0;entryDy=0;exitX=0;exitY=0.5;exitDx=0;exitDy=0;endFill=0;strokeColor=#808080;" parent="1" source="_JmauRq5uz_-VhJxKEEN-49" target="_JmauRq5uz_-VhJxKEEN-65" edge="1">
          <mxGeometry width="50" height="50" relative="1" as="geometry">
            <mxPoint x="1930" y="550" as="sourcePoint" />
            <mxPoint x="1810" y="550" as="targetPoint" />
          </mxGeometry>
        </mxCell>
      </root>
    </mxGraphModel>
  </diagram>
</mxfile>
